<svg xmlns="http://www.w3.org/2000/svg" width="1200" height="1200" viewBox="0 0 1200 1200" fill="none" role="img" aria-label="Sunset over the Penang strait with a boat">
  <defs>
    <linearGradient id="sky" x1="0" y1="0" x2="0" y2="1">
      <stop offset="0" stop-color="#FFD9A6"/>
      <stop offset="0.5" stop-color="#F2918B"/>
      <stop offset="1" stop-color="#C56BB0"/>
    </linearGradient>
    <linearGradient id="sea" x1="0" y1="0" x2="0" y2="1">
      <stop offset="0" stop-color="#2E9C8F"/>
      <stop offset="1" stop-color="#135A63"/>
    </linearGradient>
    <filter id="blur" x="-60%" y="-60%" width="220%" height="220%">
      <feGaussianBlur stdDeviation="24"/>
    </filter>
  </defs>
  <rect width="1200" height="640" fill="url(#sky)"/>
  <rect y="640" width="1200" height="560" fill="url(#sea)"/>
  <circle cx="600" cy="560" r="115" fill="#FFEDC2"/>
  <rect x="580" y="620" width="40" height="130" fill="#FFE9B8" opacity="0.35" filter="url(#blur)"/>
  <circle cx="300" cy="240" r="3.5" fill="#5A3540"/>
  <circle cx="330" cy="205" r="3" fill="#5A3540"/>
  <circle cx="262" cy="212" r="3" fill="#5A3540"/>
  <g fill="#123B42">
    <path d="M520 740 L680 740 L660 620 L540 620 Z"/>
    <path d="M540 620 L540 560 L600 600 L540 620 Z" fill="#EDE0C8"/>
    <path d="M600 680 h40 v26 h-40 z" fill="#1B4A4E"/>
  </g>
  <path d="M600 620 L600 560" stroke="#EDE0C8" stroke-width="4" stroke-linecap="round"/>
  <g stroke="#FFEDC2" stroke-width="5" stroke-linecap="round" opacity="0.5">
    <line x1="360" y1="470" x2="420" y2="455"/>
    <line x1="620" y1="455" x2="690" y2="462"/>
    <line x1="820" y1="490" x2="880" y2="480"/>
  </g>
</svg>